<svg xmlns="http://www.w3.org/2000/svg" version="1.1" xmlns:xlink="http://www.w3.org/1999/xlink" xmlns:svgjs="http://svgjs.dev/svgjs" width="1000" height="90" viewBox="0 0 1000 90"><g transform="matrix(1,0,0,1,-0.6060606060606233,-0.4963269529228853)"><svg viewBox="0 0 396 36" data-background-color="#1f2d5a" preserveAspectRatio="xMidYMid meet" height="90" width="1000" xmlns="http://www.w3.org/2000/svg" xmlns:xlink="http://www.w3.org/1999/xlink"><g id="tight-bounds" transform="matrix(1,0,0,1,0.2400000000000091,0.19853078116915412)"><svg viewBox="0 0 395.52 35.60293843766167" height="35.60293843766167" width="395.52"><g><svg viewBox="0 0 395.52 35.60293843766167" height="35.60293843766167" width="395.52"><g><svg viewBox="0 0 395.52 35.60293843766167" height="35.60293843766167" width="395.52"><g id="textblocktransform"><svg viewBox="0 0 395.52 35.60293843766167" height="35.60293843766167" width="395.52" id="textblock"><g><svg viewBox="0 0 395.52 35.60293843766167" height="35.60293843766167" width="395.52"><g transform="matrix(1,0,0,1,0,0)"><svg width="395.52" viewBox="0.35 -33.95 386.57 34.800000000000004" height="35.60293843766167" data-palette-color="#fbfbfb"><path d="M15.35 0.2L11.9 0.2 3.25-29.25Q2.9-30.35 2.45-30.9 2-31.45 0.95-31.8L0.95-31.8 0.35-32 0.35-33.05 13.25-33.05 13.25-32 12.2-31.65Q11.05-31.3 10.73-30.65 10.4-30 10.7-28.85L10.7-28.85 16.15-8.35 22.1-26.1 21.2-29Q20.85-30.05 20.5-30.63 20.15-31.2 19.35-31.55L19.35-31.55 18.25-32 18.25-33.05 30.5-33.05 30.5-32 29.1-31.55Q28.1-31.2 27.95-30.55 27.8-29.9 28.15-28.8L28.15-28.8 34.45-8.05 40.25-28.5Q40.6-29.65 40.45-30.5 40.3-31.35 39.15-31.7L39.15-31.7 38.15-32 38.15-33.05 45.55-33.05 45.55-32 44.3-31.6Q43.3-31.25 42.88-30.58 42.45-29.9 42.15-28.8L42.15-28.8 33.95 0.2 30.5 0.2 23.1-23.1 15.35 0.2ZM72 0L47.2 0 47.2-1.05 48.2-1.4Q49.1-1.65 49.45-2.27 49.8-2.9 49.85-4L49.85-4 49.85-29.15Q49.8-30.2 49.5-30.78 49.2-31.35 48.25-31.65L48.25-31.65 47.2-32 47.2-33.05 71-33.05 71.35-25.05 69.95-25.05 67.95-29.55Q67.55-30.5 67.05-31.03 66.55-31.55 65.55-31.55L65.55-31.55 57.05-31.55Q57-28.45 57-25.18 57-21.9 57-17.8L57-17.8 61.95-17.8Q62.95-17.8 63.47-18.32 64-18.85 64.45-19.75L64.45-19.75 65.3-21.65 66.4-21.65 66.4-12.4 65.3-12.4 64.4-14.3Q64-15.2 63.5-15.75 63-16.3 62-16.3L62-16.3 57-16.3Q57-12.7 57-10.1 57-7.5 57.02-5.48 57.05-3.45 57.05-1.5L57.05-1.5 66.65-1.5Q67.65-1.5 68.2-2.02 68.75-2.55 69.1-3.5L69.1-3.5 70.95-8 72.35-8 72 0ZM87.45 0L74.9 0 74.9-1.05 75.7-1.3Q76.75-1.7 77.12-2.35 77.5-3 77.5-4.1L77.5-4.1Q77.55-6.95 77.55-9.83 77.55-12.7 77.55-15.6L77.55-15.6 77.55-17.4Q77.55-20.3 77.52-23.18 77.5-26.05 77.5-28.95L77.5-28.95Q77.5-30.15 77.15-30.78 76.8-31.4 75.7-31.75L75.7-31.75 74.9-32 74.9-33.05 89-33.05Q95-33.05 97.7-30.83 100.4-28.6 100.4-25.2L100.4-25.2Q100.4-22.6 98.5-20.53 96.59-18.45 91.84-17.55L91.84-17.55Q97.34-16.95 99.8-14.7 102.25-12.45 102.25-9.2L102.25-9.2Q102.25-7.6 101.55-5.98 100.84-4.35 99.17-3 97.5-1.65 94.65-0.83 91.8 0 87.45 0L87.45 0ZM84.65-31.6L84.65-17.9 87-17.9Q90.4-17.9 91.92-19.43 93.45-20.95 93.45-24.65L93.45-24.65Q93.45-28.5 92.05-30.05 90.65-31.6 87.65-31.6L87.65-31.6 84.65-31.6ZM84.65-16.45L84.65-1.45 87.4-1.45Q91.15-1.45 93-3.3 94.84-5.15 94.84-9.25L94.84-9.25Q94.84-13.2 93.07-14.83 91.3-16.45 87.25-16.45L87.25-16.45 84.65-16.45ZM112.89 0L105.19 0 105.19-1.05 106.64-1.45Q107.59-1.7 107.97-2.4 108.34-3.1 108.34-4.1L108.34-4.1 108.34-28.3Q107.89-29.25 107.57-29.73 107.24-30.2 106.89-30.55 106.54-30.9 105.94-31.35L105.94-31.35 105.04-32 105.04-33.05 113.59-33.05 130.19-10.35 130.19-28.9Q130.19-29.9 129.87-30.65 129.54-31.4 128.54-31.65L128.54-31.65 127.04-32 127.04-33.05 134.49-33.05 134.49-32 133.24-31.65Q132.29-31.35 132.07-30.63 131.84-29.9 131.84-28.9L131.84-28.9 131.84 0.2 129.04 0.2 109.99-26 109.99-4.15Q109.99-3.1 110.29-2.4 110.59-1.7 111.54-1.45L111.54-1.45 112.89-1.05 112.89 0ZM153.09 0.85L153.09 0.85Q149.34 0.85 146.47-0.5 143.59-1.85 141.97-4.78 140.34-7.7 140.34-12.5L140.34-12.5 140.34-17.9Q140.34-20.7 140.34-23.55 140.34-26.4 140.29-29.3L140.29-29.3Q140.29-31.25 138.44-31.75L138.44-31.75 137.34-32 137.34-33.05 150.84-33.05 150.84-32 149.44-31.7Q147.54-31.25 147.54-29.2L147.54-29.2Q147.49-26.4 147.49-23.58 147.49-20.75 147.49-17.9L147.49-17.9 147.49-11.55Q147.49-6.7 149.47-4.55 151.44-2.4 155.09-2.4L155.09-2.4Q158.94-2.4 161.12-4.73 163.29-7.05 163.29-11.65L163.29-11.65 163.29-29.05Q163.29-30.05 162.89-30.8 162.49-31.55 161.49-31.75L161.49-31.75 160.29-32 160.29-33.05 167.99-33.05 167.99-32 166.59-31.7Q165.64-31.5 165.29-30.8 164.94-30.1 164.94-29.1L164.94-29.1 164.94-11.95Q164.94-5.75 161.69-2.45 158.44 0.85 153.09 0.85ZM180.84 0.85L180.84 0.85Q178.09 0.85 175.26 0.18 172.44-0.5 170.54-1.6L170.54-1.6 170.84-8.55 172.29-8.55 173.84-5.1Q174.54-3.65 175.29-2.7 176.04-1.75 177.29-1.25L177.29-1.25Q178.14-0.9 178.91-0.78 179.69-0.65 180.64-0.65L180.64-0.65Q183.69-0.65 185.46-2.23 187.24-3.8 187.24-6.4L187.24-6.4Q187.24-8.75 186.01-10.1 184.79-11.45 182.09-12.7L182.09-12.7 180.04-13.6Q175.84-15.45 173.41-17.9 170.99-20.35 170.99-24.4L170.99-24.4Q170.99-27.4 172.51-29.53 174.04-31.65 176.74-32.8 179.44-33.95 183.04-33.95L183.04-33.95Q185.69-33.95 188.01-33.25 190.34-32.55 192.09-31.35L192.09-31.35 191.74-25.15 190.29-25.15 188.44-28.9Q187.64-30.55 186.91-31.28 186.19-32 185.14-32.2L185.14-32.2Q184.54-32.3 184.11-32.35 183.69-32.4 182.99-32.4L182.99-32.4Q180.54-32.4 178.76-30.98 176.99-29.55 176.99-27.05L176.99-27.05Q176.99-24.65 178.34-23.15 179.69-21.65 182.24-20.5L182.24-20.5 184.49-19.55Q189.34-17.45 191.44-15.08 193.54-12.7 193.54-9L193.54-9Q193.54-4.6 190.21-1.88 186.89 0.85 180.84 0.85ZM202.99 0L195.34 0 195.34-1.05 196.69-1.45Q197.74-1.75 198.31-2.35 198.89-2.95 199.24-4L199.24-4 209.34-33.2 213.49-33.2 223.54-3.8Q223.94-2.7 224.44-2.13 224.94-1.55 226.04-1.2L226.04-1.2 226.79-1 226.79 0 214.09 0 214.09-1 214.94-1.25Q216.04-1.6 216.26-2.35 216.49-3.1 216.14-4.2L216.14-4.2 214.04-10.65 202.99-10.65 200.84-4.3Q200.49-3.2 200.64-2.5 200.79-1.8 201.89-1.4L201.89-1.4 202.99-1.05 202.99 0ZM208.69-27.15L203.49-12.1 213.59-12.1 208.69-27.15ZM236.88 0L229.18 0 229.18-1.05 230.63-1.45Q231.58-1.7 231.96-2.4 232.33-3.1 232.33-4.1L232.33-4.1 232.33-28.3Q231.88-29.25 231.56-29.73 231.23-30.2 230.88-30.55 230.53-30.9 229.93-31.35L229.93-31.35 229.03-32 229.03-33.05 237.58-33.05 254.18-10.35 254.18-28.9Q254.18-29.9 253.86-30.65 253.53-31.4 252.53-31.65L252.53-31.65 251.03-32 251.03-33.05 258.48-33.05 258.48-32 257.23-31.65Q256.28-31.35 256.06-30.63 255.83-29.9 255.83-28.9L255.83-28.9 255.83 0.2 253.03 0.2 233.98-26 233.98-4.15Q233.98-3.1 234.28-2.4 234.58-1.7 235.53-1.45L235.53-1.45 236.88-1.05 236.88 0ZM283.58 0L268.13 0 268.13-1.05 270.13-1.45Q272.23-1.9 272.23-3.9L272.23-3.9 272.23-17.55Q272.23-21.05 272.23-24.55 272.23-28.05 272.18-31.55L272.18-31.55 268.23-31.55Q266.63-31.55 265.88-30.7 265.13-29.85 264.38-28.3L264.38-28.3 262.63-24.6 261.23-24.6 261.48-33.05 290.18-33.05 290.43-24.6 289.03-24.6 287.28-28.3Q286.53-29.85 285.78-30.7 285.03-31.55 283.43-31.55L283.43-31.55 279.43-31.55 279.43-3.9Q279.43-1.85 281.53-1.45L281.53-1.45 283.58-1.05 283.58 0ZM299.43 0L291.78 0 291.78-1.05 293.13-1.45Q294.18-1.75 294.75-2.35 295.33-2.95 295.68-4L295.68-4 305.78-33.2 309.93-33.2 319.98-3.8Q320.38-2.7 320.88-2.13 321.38-1.55 322.48-1.2L322.48-1.2 323.23-1 323.23 0 310.53 0 310.53-1 311.38-1.25Q312.48-1.6 312.7-2.35 312.93-3.1 312.58-4.2L312.58-4.2 310.48-10.65 299.43-10.65 297.28-4.3Q296.93-3.2 297.08-2.5 297.23-1.8 298.33-1.4L298.33-1.4 299.43-1.05 299.43 0ZM305.13-27.15L299.93-12.1 310.03-12.1 305.13-27.15ZM337.57 0L325.02 0 325.02-1.05 326.07-1.35Q327.07-1.65 327.35-2.23 327.63-2.8 327.63-3.85L327.63-3.85Q327.68-6.75 327.68-9.65 327.68-12.55 327.68-15.5L327.68-15.5 327.68-17.55Q327.68-20.45 327.68-23.35 327.68-26.25 327.63-29.15L327.63-29.15Q327.63-30.2 327.38-30.78 327.13-31.35 326.13-31.65L326.13-31.65 325.02-32 325.02-33.05 339.02-33.05Q344.88-33.05 348.05-30.83 351.23-28.6 351.23-24.6L351.23-24.6Q351.23-22.4 349.5-20.15 347.77-17.9 344.23-16.7L344.23-16.7 351.02-3.45Q351.88-1.8 353.68-1.2L353.68-1.2 354.63-1 354.63 0 345.77 0 338.32-15.6 334.73-15.6Q334.73-12.05 334.73-9.2 334.73-6.35 334.77-3.85L334.77-3.85Q334.77-2.85 335.1-2.25 335.43-1.65 336.38-1.4L336.38-1.4 337.57-1.05 337.57 0ZM334.73-17.05L334.73-17.05 337.43-17.05Q340.98-17.05 342.63-18.85 344.27-20.65 344.27-24.35L344.27-24.35Q344.27-28.05 342.7-29.83 341.13-31.6 337.63-31.6L337.63-31.6 334.77-31.6Q334.77-29.65 334.75-27.63 334.73-25.6 334.73-23.08 334.73-20.55 334.73-17.05ZM363.12 0L355.47 0 355.47-1.05 356.82-1.45Q357.87-1.75 358.45-2.35 359.02-2.95 359.37-4L359.37-4 369.47-33.2 373.62-33.2 383.67-3.8Q384.07-2.7 384.57-2.13 385.07-1.55 386.17-1.2L386.17-1.2 386.92-1 386.92 0 374.22 0 374.22-1 375.07-1.25Q376.17-1.6 376.4-2.35 376.62-3.1 376.27-4.2L376.27-4.2 374.17-10.65 363.12-10.65 360.97-4.3Q360.62-3.2 360.77-2.5 360.92-1.8 362.02-1.4L362.02-1.4 363.12-1.05 363.12 0ZM368.82-27.15L363.62-12.1 373.72-12.1 368.82-27.15Z" opacity="1" transform="matrix(1,0,0,1,0,0)" fill="#fbfbfb" class="wordmark-text-0" data-fill-palette-color="primary" id="text-0"></path></svg></g></svg></g></svg></g></svg></g><g></g></svg></g><defs></defs></svg><rect width="395.52" height="35.60293843766167" fill="none" stroke="none" visibility="hidden"></rect></g></svg></g></svg>